<svg xmlns="http://www.w3.org/2000/svg" width="239.058" height="239.058" viewBox="0 0 63.251 63.251">
  <g fill="none">
    <path fill="#fff" d="M63.25 31.625c0 17.465-14.16 31.625-31.625 31.625S0 49.09 0 31.625 14.16 0 31.625 0C49.094 0 63.25 14.16 63.25 31.625z"/>
    <path fill="#000" d="m15.603 32.688.136-.215 8.226-12.87a.281.281 0 0 1 .494.036c1.374 3.08 2.56 6.91 2.005 9.296-.237.981-.887 2.31-1.618 3.538a6.753 6.753 0 0 1-.309.523.28.28 0 0 1-.234.124h-8.46a.28.28 0 0 1-.24-.432z"/>
    <path fill="#000" d="M52.272 35.08v2.036a.293.293 0 0 1-.175.267c-.637.273-2.817 1.274-3.723 2.534-2.314 3.22-4.081 7.824-8.033 7.824H23.86c-5.842 0-10.577-4.75-10.577-10.612v-.188c0-.156.127-.283.283-.283h9.189c.182 0 .315.17.299.348a3.137 3.137 0 0 0 .328 1.764 3.233 3.233 0 0 0 2.898 1.8h4.549v-3.55h-4.497a.29.29 0 0 1-.234-.455l.163-.24a32.767 32.767 0 0 0 1.638-2.613 20.44 20.44 0 0 0 1.133-2.264c.065-.14.117-.283.169-.423.088-.247.179-.477.244-.708.065-.195.117-.4.169-.592a9.17 9.17 0 0 0 .218-2.072c0-.283-.013-.58-.04-.862-.012-.308-.051-.617-.09-.926a9.599 9.599 0 0 0-.127-.825 13.909 13.909 0 0 0-.26-1.235l-.036-.155c-.078-.283-.143-.553-.234-.835a31.505 31.505 0 0 0-.864-2.56c-.114-.323-.244-.631-.373-.94-.192-.465-.387-.887-.566-1.286a17.437 17.437 0 0 1-.247-.517 18.19 18.19 0 0 0-.27-.566c-.065-.139-.14-.27-.191-.4l-.556-1.026a.18.18 0 0 1 .205-.263l3.477.942h.009c.006 0 .01.003.013.003l.458.127.504.143.185.052v-2.067c0-.997.8-1.806 1.787-1.806.494 0 .942.202 1.264.53.322.328.523.776.523 1.277v3.067l.37.104a.296.296 0 0 1 .085.042c.091.068.221.169.387.292.13.104.27.231.438.36.335.271.734.618 1.173 1.018.117.101.231.205.335.309a26.786 26.786 0 0 1 1.803 1.826c.169.191.335.386.504.591.169.208.348.412.504.617.204.274.425.556.617.852.091.14.195.282.283.422.246.373.464.76.672 1.147.088.179.179.374.257.565.23.517.412 1.044.53 1.57.035.113.061.237.074.347v.026c.039.157.052.322.065.491a5.248 5.248 0 0 1-.091 1.621 5.908 5.908 0 0 1-.192.68c-.078.221-.155.451-.257.669a9.074 9.074 0 0 1-.698 1.326 7.354 7.354 0 0 1-.296.477c-.114.166-.23.322-.334.474-.143.195-.296.4-.452.582-.14.192-.283.384-.438.553a21.233 21.233 0 0 1-.644.733c-.13.153-.27.31-.413.45-.139.155-.282.295-.412.425-.218.218-.4.386-.552.526l-.358.328a.292.292 0 0 1-.191.072H34.4v3.551h3.484a3.259 3.259 0 0 0 2.118-.783c.205-.179 1.098-.952 2.154-2.118a.27.27 0 0 1 .133-.081l9.621-2.782a.284.284 0 0 1 .36.273z"/>
  </g>
</svg>
